<?xml version="1.0" encoding="iso-8859-1"?>
<!-- Generator: Adobe Illustrator 17.1.0, SVG Export Plug-In . SVG Version: 6.00 Build 0)  -->
<!DOCTYPE svg PUBLIC "-//W3C//DTD SVG 1.1//EN" "http://www.w3.org/Graphics/SVG/1.1/DTD/svg11.dtd">
<svg version="1.1" id="Capa_1" xmlns="http://www.w3.org/2000/svg" xmlns:xlink="http://www.w3.org/1999/xlink" x="0px" y="0px"
	 viewBox="0 0 512 512" style="enable-background:new 0 0 512 512;" xml:space="preserve">
<g>
	<path d="M344,372c-8.837,0-15.708,5.215-22.983,10.736C312.426,389.257,303.542,396,289.846,396C273.765,396,264,388.221,264,384.8
		v-7.573c4.103-1.904,10.192-4.965,16.329-8.914C296.036,358.207,304,347.485,304,336.444C304,313.965,285.607,300,256,300
		s-48,13.965-48,36.444c0,11.041,7.964,21.763,23.671,31.869c6.136,3.949,12.226,7.01,16.329,8.914v7.573
		c0,3.421-9.765,11.2-25.846,11.2c-13.696,0-22.58-6.743-31.171-13.264C183.708,377.215,176.837,372,168,372c-4.418,0-8,3.582-8,8
		s3.582,8,8,8c3.453,0,8.021,3.467,13.31,7.481c9.185,6.971,21.764,16.519,40.844,16.519c13.9,0,26.232-4.432,33.846-11.232
		c7.614,6.8,19.946,11.232,33.846,11.232c19.08,0,31.659-9.548,40.844-16.519c5.289-4.015,9.857-7.481,13.31-7.481
		c4.418,0,8-3.582,8-8S348.418,372,344,372z M224,336.444C224,317.992,246.378,316,256,316c28.882,0,32,14.297,32,20.444
		c0,8.999-18.124,20.761-32,26.878C242.121,357.202,224,345.442,224,336.444z"/>
	<path d="M200,228c0-17.645-14.355-32-32-32s-32,14.355-32,32s14.355,32,32,32S200,245.645,200,228z M152,228
		c0-8.822,7.178-16,16-16s16,7.178,16,16s-7.178,16-16,16S152,236.822,152,228z"/>
	<path d="M344,196c-17.645,0-32,14.355-32,32s14.355,32,32,32s32-14.355,32-32S361.645,196,344,196z M344,244
		c-8.822,0-16-7.178-16-16s7.178-16,16-16s16,7.178,16,16S352.822,244,344,244z"/>
	<path d="M477.344,92.793C445.092,45.853,421.833,36,408,36c-22.488,0-39.703,12.801-46.699,34.442
		c-10.939,5.138-19.202,3.016-34.479-0.945C311.358,65.489,290.181,60,256,60s-55.358,5.489-70.822,9.497
		c-15.278,3.961-23.54,6.083-34.479,0.945C143.703,48.801,126.488,36,104,36c-13.833,0-37.092,9.853-69.344,56.793
		C17.989,117.051,0,151.173,0,164c0,3.643,2.191,5.678,3.952,7.312c4.546,4.22,18.38,17.063,20.067,41.245
		c1.053,15.094,5.92,31.239,13.355,44.298c8.211,14.423,18.739,23.841,29.646,26.517c1.813,0.445,4.015,0.789,6.493,0.789
		c2.041,0,4.268-0.233,6.615-0.836c0.92,29.027,7.368,53.792,19.661,75.495c11.833,20.89,29.427,39.812,55.367,59.548
		c2.092,1.591,5.053,5.542,8.188,9.723C176.78,446.009,199.267,476,256,476s79.22-29.991,92.656-47.91
		c3.135-4.182,6.097-8.132,8.188-9.723c25.94-19.737,43.533-38.659,55.367-59.548c12.293-21.702,18.741-46.468,19.661-75.495
		c2.348,0.603,4.575,0.836,6.615,0.836c2.478,0,4.681-0.344,6.493-0.789c23.918-5.87,40.943-41.329,43-70.815
		c1.688-24.182,15.521-37.024,20.067-41.245c1.761-1.634,3.952-3.669,3.952-7.312C512,151.173,494.011,117.051,477.344,92.793z
		 M472.02,211.443c-0.892,12.783-5.01,26.449-11.299,37.495c-5.928,10.413-13.055,17.299-19.554,18.894
		c-6.319,1.553-12.495-2.492-18.351-12.021c-8.44-13.735-3.108-43.257,2.048-71.806c7.53-41.689,16.064-88.94-11.49-113.932
		c-3.273-2.968-8.332-2.721-11.3,0.551c-2.968,3.273-2.721,8.332,0.551,11.3c20.98,19.029,13.616,59.804,6.494,99.236
		c-5.952,32.956-11.575,64.084,0.065,83.026c2.341,3.81,4.748,6.924,7.166,9.471C416.124,274.4,416,275.186,416,276
		c0,64.115-27.521,98.192-68.844,129.633c-3.867,2.942-7.312,7.538-11.302,12.858C323.461,435.021,304.732,460,256,460
		s-67.461-24.979-79.854-41.509c-3.99-5.32-7.435-9.916-11.302-12.858C123.521,374.192,96,340.115,96,276
		c0-0.815-0.124-1.601-0.35-2.341c2.418-2.547,4.825-5.661,7.166-9.471c11.64-18.942,6.017-50.071,0.065-83.026
		c-7.122-39.433-14.487-80.208,6.494-99.236c3.272-2.968,3.52-8.027,0.551-11.3s-8.028-3.519-11.3-0.551
		c-27.554,24.991-19.02,72.242-11.49,113.932c5.156,28.549,10.488,58.07,2.048,71.806c-5.855,9.528-12.029,13.575-18.351,12.021
		c-6.5-1.595-13.626-8.481-19.554-18.894c-6.289-11.046-10.407-24.712-11.299-37.495c-1.36-19.492-9.262-36.399-23.493-50.288
		c2.36-9.029,13.237-32.931,31.356-59.302C69.292,70.637,90.285,52,104,52c9.513,0,26.353,3.38,32.259,26.02
		c0.007,0.026,0.017,0.051,0.024,0.077c0.04,0.147,0.089,0.292,0.138,0.437c0.036,0.108,0.069,0.219,0.109,0.325
		c0.048,0.126,0.106,0.249,0.161,0.374c0.052,0.117,0.1,0.237,0.156,0.351c0.054,0.107,0.116,0.209,0.175,0.314
		c0.068,0.123,0.133,0.247,0.207,0.365c0.064,0.103,0.138,0.2,0.208,0.3c0.078,0.112,0.152,0.227,0.235,0.334
		c0.084,0.109,0.178,0.211,0.269,0.316c0.078,0.09,0.152,0.184,0.233,0.271c0.098,0.104,0.205,0.201,0.309,0.3
		c0.084,0.08,0.165,0.164,0.252,0.24c0.099,0.086,0.206,0.166,0.31,0.248c0.103,0.081,0.204,0.165,0.311,0.241
		c0.096,0.068,0.198,0.13,0.298,0.194c0.124,0.081,0.248,0.162,0.376,0.235c0.025,0.014,0.047,0.031,0.071,0.044
		c8.594,4.797,16.055,6.537,23.466,6.537c8.125,0,16.191-2.091,25.625-4.537C204.637,80.982,223.859,76,256,76
		s51.363,4.982,66.807,8.985c9.436,2.446,17.5,4.537,25.625,4.537c7.411,0,14.873-1.74,23.466-6.537
		c0.024-0.013,0.045-0.029,0.069-0.043c0.134-0.076,0.262-0.161,0.392-0.245c0.094-0.061,0.192-0.12,0.282-0.184
		c0.114-0.082,0.222-0.17,0.332-0.258c0.097-0.077,0.197-0.15,0.289-0.23c0.097-0.085,0.188-0.178,0.281-0.267
		c0.094-0.091,0.192-0.178,0.281-0.272c0.093-0.099,0.177-0.205,0.266-0.309c0.079-0.093,0.162-0.183,0.237-0.279
		c0.092-0.118,0.174-0.244,0.259-0.368c0.061-0.089,0.127-0.175,0.185-0.267c0.079-0.125,0.148-0.257,0.22-0.388
		c0.054-0.097,0.112-0.192,0.162-0.292c0.059-0.117,0.108-0.241,0.161-0.362c0.053-0.121,0.11-0.241,0.157-0.364
		c0.041-0.107,0.073-0.218,0.11-0.327c0.048-0.145,0.097-0.289,0.137-0.435c0.007-0.026,0.018-0.051,0.024-0.077
		C381.647,55.38,398.487,52,408,52c13.715,0,34.708,18.637,56.156,49.854c18.119,26.371,28.996,50.273,31.356,59.302
		C481.281,175.044,473.379,191.951,472.02,211.443z"/>
	<path d="M278.605,418.042c-15,2.618-30.211,2.618-45.211,0c-4.354-0.761-8.497,2.153-9.256,6.506
		c-0.76,4.353,2.153,8.497,6.505,9.256c8.413,1.469,16.885,2.203,25.356,2.203s16.944-0.734,25.356-2.203
		c4.353-0.759,7.265-4.903,6.505-9.256S282.961,417.281,278.605,418.042z"/>
</g>
<g>
</g>
<g>
</g>
<g>
</g>
<g>
</g>
<g>
</g>
<g>
</g>
<g>
</g>
<g>
</g>
<g>
</g>
<g>
</g>
<g>
</g>
<g>
</g>
<g>
</g>
<g>
</g>
<g>
</g>
</svg>
